<?xml version="1.0" encoding="utf-8"?>
<!-- Generator: Adobe Illustrator 18.0.0, SVG Export Plug-In . SVG Version: 6.00 Build 0)  -->
<!DOCTYPE svg PUBLIC "-//W3C//DTD SVG 1.1//EN" "http://www.w3.org/Graphics/SVG/1.1/DTD/svg11.dtd">
<svg version="1.1" id="Capa_1" xmlns="http://www.w3.org/2000/svg" xmlns:xlink="http://www.w3.org/1999/xlink" x="0px" y="0px"
	 viewBox="85.9 115.6 262 101" enable-background="new 85.9 115.6 262 101" xml:space="preserve">
<g>
	<path fill="#E80000" d="M197.4,196.9c-1.9,0.5-2.5,1.2-2.7,2.8c-0.4,3.5,0.2,6.8,0.3,10.5c0,0.9,0,3.8,2,2.8
		c1.4-0.7,0.3-3.2,0.2-4.2c-0.1-1.5,0.3-3.2-0.1-4.5c0.9,0.7,3.2,0.7,4.2,0c0.9-0.7,1.3-4-0.3-6.2
		C200,196.8,199.2,196.5,197.4,196.9z M200.2,202c-0.2,1.1-1.2,2-2.3,0.9c-0.8-0.6-1.4-2.4-1.3-3.3c0.2-1.1,2-1.6,2.9-0.8
		C200.1,199.4,200.3,201.3,200.2,202z"/>
	<path fill="#E80000" d="M144.5,202.3c-1.3-0.8,2.7-1.1,2.7-4.3c0-1.1-0.5-5.2-1.7-6c-2.1-1.5-7.2-2.2-7.4,2.4
		c-0.2,4.7-0.1,7.9-0.9,12.8c-0.2,1.1,1.2,4.8,2.6,2.9c1.2-1.6,0.3-2.6,0.5-4.5c0.2-1.5,0.1-3.1,0.1-3.2c0.1-0.3,1.1,0.1,1.8,0.9
		c1.5,1.7,3.3,4.9,5.2,5.4c1,0.3,1.5-0.9,1.3-1.7C148.5,205.7,145.5,202.9,144.5,202.3z M141.3,200.2c-1-0.1-0.9-2-0.7-2.7
		c0.4-1.2-0.1-2.7,0.8-3.4c0.3-0.4,1.3-0.9,1.8-0.9c2.1,0.1,3.7,3.2,2.7,5C144.9,199.9,143.2,200.3,141.3,200.2z"/>
	<path fill="#E80000" d="M293.6,196.3c-0.6-0.1-1.2,0-1.7,0.3c-0.2,0.1-0.4,0.3-0.6,0.4l-0.1,0.1v-0.3l0.1-1.3
		c0-0.5-0.4-0.9-0.8-0.9c-0.3,0-0.5,0.1-0.7,0.3c-0.3,0.1-0.4,0.4-0.5,0.8l-0.1,1.4l0.1,2.5l0.1,2.1c-0.4,2.2-0.8,4.7-0.8,6.1v0.4
		v0.1v0.1v0.1c0.1,0.5,0.5,0.9,1,0.8h0.2c0.4-0.1,0.8-0.4,0.8-0.9V208c0-0.6,0.2-1.7,0.3-2.7l0.3-2.1l0.1-1.5v-0.1l0,0
		c0.2-0.8,0.4-2,0.7-2.5c0.1-0.2,0.3-0.6,0.7-0.8l0.4-0.1c0.6,0.1,1.2,0.8,1.5,2.1c0.1,0.5,0.6,0.9,1,0.8l0.3-0.1
		c0.3,0,0.4-0.2,0.6-0.4c0.1-0.2,0.2-0.4,0.2-0.7C296.4,198,295.2,196.6,293.6,196.3z"/>
	<path fill="#E80000" d="M162.8,193.9c-2.3,0.8-3,1.6-3.1,3.7c-0.3,4.4,0.6,8.4,0.9,12.9c0.1,1.1,0.3,4.6,2.7,3.3
		c1.6-0.9,0.1-4-0.1-5.2c-0.3-1.9,0.1-3.9-0.4-5.6c1.2,0.8,4,0.6,5.1-0.3c1.1-0.9,1.3-5.1-0.8-7.6
		C165.9,193.6,164.9,193.2,162.8,193.9z M166.6,200c-0.2,1.5-1.3,2.5-2.8,1.3c-0.9-0.8-1.9-2.9-1.7-4c0.1-1.5,2.3-2.1,3.5-1.1
		C166.3,196.8,166.7,199.2,166.6,200z"/>
	<path fill="#E80000" d="M183.7,203.3c-0.7,0.3-1.6-0.1-2.1-0.9c-0.1-0.2-0.2-0.4-0.3-0.7c0-0.5-0.2-1-0.6-1.4
		c-0.3-0.9-0.6-1.9-0.9-3l-0.2-1.1c0-0.2-0.1-0.4-0.1-0.6c0.2-0.3,0.3-0.7,0.3-1.1l0,0c0-1-0.7-1.8-1.5-1.8h-0.1c-0.2,0-0.4,0-0.6,0
		c-0.1,0-0.1,0-0.1,0c-0.8,0.1-1.6,0.2-2.5,0.8c-0.4,0.3-2,1.5-2.6,2.8c-0.1,0.3-0.1,0.5-0.1,0.8c0,0.1,0,0.1,0,0.1
		c-0.3,0.5-0.4,0.9-0.5,1.5l-0.3,0.8l-0.1,0.3c-0.3,0.7-0.6,1.5-0.8,2.5c-0.4,2.8,0.6,5.2,2.7,6.1c1.1,0.5,3.7,1.1,5.3-0.3
		c0.8-0.6,1.2-1.4,1.5-2.1c1.3,1.2,3,1.6,4.5,1c0.8-0.3,1.2-1.4,0.9-2.3C185.3,203.5,184.5,203,183.7,203.3z M177.9,203
		c-0.3,1-0.4,1.6-0.8,1.9c-0.4,0.4-1.8,0.3-2.7-0.1c-0.5-0.3-0.8-0.8-0.8-1.6c0-0.2,0-0.4,0.1-0.6c0.1-0.4,0.3-0.8,0.4-1.3l0.1-0.3
		l0.4-1.1c0.1-0.4,0.3-1,0.4-1.1c0.3-0.3,0.4-0.7,0.4-1.1c0.3-0.3,0.7-0.7,1.1-0.9h0.1c0,0.1,0.1,0.1,0.1,0.2l0.3,1.6
		c0.3,1.3,0.7,2.5,1.1,3.6C178,202.3,177.9,202.7,177.9,203z"/>
	<path fill="#E80000" d="M285.4,205.3c-0.7,0.3-1.6-0.1-2.1-0.9c-0.1-0.2-0.2-0.4-0.3-0.6c0-0.5-0.2-1-0.6-1.4
		c-0.3-0.9-0.6-1.9-0.9-3l-0.2-1.1c0-0.2-0.1-0.4-0.1-0.6c0.2-0.3,0.3-0.7,0.3-1.1l0,0c0-1-0.7-1.8-1.5-1.8H280c-0.2,0-0.4,0-0.6,0
		c-0.1,0-0.1,0-0.1,0c-0.8,0.1-1.6,0.2-2.5,0.8c-0.4,0.3-2,1.5-2.6,2.8c-0.1,0.3-0.1,0.5-0.1,0.8c0,0.1,0,0.1,0,0.1
		c-0.3,0.5-0.4,0.9-0.5,1.4l-0.3,0.8l-0.1,0.3c-0.3,0.7-0.6,1.5-0.8,2.5c-0.4,2.8,0.6,5.2,2.7,6.1c1.1,0.5,3.7,1.1,5.3-0.3
		c0.8-0.6,1.2-1.4,1.5-2.1c1.3,1.2,3,1.7,4.5,1c0.8-0.3,1.2-1.4,0.9-2.3C287,205.5,286.1,205,285.4,205.3z M279.5,205
		c-0.3,1-0.4,1.6-0.8,1.9c-0.4,0.4-1.8,0.3-2.7-0.1c-0.5-0.3-0.8-0.8-0.8-1.6c0-0.2,0-0.4,0.1-0.6c0.1-0.4,0.3-0.8,0.4-1.3l0.1-0.3
		l0.4-1.1c0.1-0.4,0.3-1,0.4-1.2c0.3-0.3,0.4-0.8,0.4-1.1c0.3-0.3,0.7-0.6,1.1-0.9c0,0,0,0,0.1,0c0,0.1,0,0.1,0,0.2l0.3,1.6
		c0.3,1.3,0.7,2.5,1.1,3.6C279.7,204.4,279.6,204.7,279.5,205z"/>
	<path fill="#E80000" d="M153.8,196.9c0-0.1-0.1-0.2-0.1-0.3c-0.3-0.5-1-0.6-1.5-0.3c-1.2,0.9-2.7,2.8-2.8,4.9
		c-0.1,1.1,0.2,2.2,0.9,3c1.6,1.8,4.5,2,6.4,0.5c0.9-0.7,1.3-1.7,1.3-2.8c0-0.9-0.3-1.8-0.9-2.7C156.3,198,155.1,197.2,153.8,196.9z
		 M155.3,203c-0.9,0.8-2.7,0.6-3.5-0.3c-0.3-0.3-0.4-0.6-0.4-1.1c0-0.1,0-0.1,0-0.3c0.1-0.8,0.4-1.5,0.9-2.1c0.1,0,0.1,0,0.2-0.1
		c1.1-0.6,2.2,0.4,2.8,1.2C155.4,200.6,156.3,202.1,155.3,203z"/>
	<path fill="#E80000" d="M246.4,193.2c0.4,0,0.8-0.2,1.2-0.4c0.4-0.3,0.7-0.6,0.9-1c0.2-0.4,0.2-0.8-0.1-1.1
		c-0.2-0.4-0.6-0.6-0.9-0.5c-0.3,0-0.5,0.1-0.7,0.2c-0.3,0.1-0.4,0.3-0.6,0.4c-0.4,0.4-0.8,1.1-0.6,1.7
		C245.6,193,246,193.2,246.4,193.2z"/>
	<path fill="#E80000" d="M257.4,198.2c-2-1.4-1.9,1.4-1.9,2.5c-0.1,1.4-0.4,7.1-2.3,7.1c-2.7,0-1.3-3-1.6-4c0.4-1.1,1.4-3.6-0.3-4.2
		c-1.8-0.6-1.5,2.4-1.5,3.6c0,1.4,0,4,0.8,5.1c1.3,1.8,3.9-0.4,3.4,2.4c0.9-0.2,2,0,2.8-0.1c-1.1-2.2,0.8-5.8,1-8.2
		C258,201.5,258.4,198.9,257.4,198.2z"/>
	<path fill="#E80000" d="M270.8,202.1L270.8,202.1c-0.3,0-5.8,0.1-6.6,0.8l-0.1,0.1c-0.7,0.7-0.1,1.5-0.1,1.5l0,0
		c2.1,0,2.7,0.2,2.8,0.3h0.1l0,0c-0.3,1.5-0.7,1.9-0.9,2.1h-0.3h-0.6l-1.1,0.3c-1.5,0.5-2.2-1.3-2.3-1.3c-0.3-2,0.4-3.5,0.4-3.5
		c0-0.2,0.2-1.1,1.7-3l0.9-1c0.6-0.6,0.9-0.6,1.3-0.7c0.1,0,0.3-0.1,0.4-0.2l0.1-0.1l0.1-0.1c0.4-0.4,0.4-0.8,0.4-0.8
		c0.1-0.6-0.3-0.7-0.8-0.8l-0.2-0.1c-0.3-0.1-0.8,0.1-1.3,0.3c-0.4,0-1.1,0.5-1.8,1.2c-0.6,0.6-2.8,2.9-3.1,6.4
		c-0.3,3.8,0.4,4.2,1,4.7l0.3,0.3c0.7,0.6,3.1,0.6,4.9,0.2l0.5-0.1c1.6-0.4,2-1.6,2.3-2.1l0.1-0.3c0.1-0.2,0.2-0.8,0.2-1.8V204h0.1
		l0.5-0.1l0.6-0.3l0.1-0.1c0.4-0.5,0.6-0.9,0.6-1.2v-0.1C271,202.2,270.8,202.1,270.8,202.1z"/>
	<path fill="#E80000" d="M264,204.6L264,204.6L264,204.6z"/>
	<path fill="#E80000" d="M217.5,199.6c-0.5-0.1-0.9,0-1.4,0.2c-0.2,0.1-0.4,0.2-0.5,0.3l-0.1,0.1V200l0.1-1.1c0-0.4-0.3-0.7-0.6-0.8
		c-0.2-0.1-0.4,0-0.6,0.2c-0.3,0.1-0.4,0.3-0.4,0.6l-0.1,1.1v2v1.7c-0.4,1.8-0.8,3.7-0.8,4.9v0.4v0.1v0.1v0.1c0,0.4,0.4,0.7,0.8,0.7
		h0.1c0.4,0,0.7-0.3,0.7-0.7V209c0-0.5,0.2-1.4,0.4-2.1l0.4-1.7l0.1-1.2v-0.1l0,0c0.2-0.7,0.4-1.6,0.7-2c0.1-0.1,0.3-0.4,0.6-0.6
		h0.3c0.4,0.1,0.9,0.7,1.1,1.8c0.1,0.4,0.4,0.7,0.8,0.7l0.2-0.1c0.2,0,0.4-0.1,0.5-0.3c0.1-0.1,0.2-0.3,0.2-0.6
		C219.5,201.1,218.7,199.9,217.5,199.6z"/>
	<path fill="#E80000" d="M247.8,200.1c0.4-0.9,0.4-3.5-0.4-4.3c-0.6-0.5-1.6-0.3-2,0.2c-0.4,0.5-0.4,1.7-0.4,2.3
		c-0.1,2,0.4,3.9,0.8,5.9c0.3,2.1,0.3,4.5,0.2,6.6c-0.1,1.3-1.1,2.8-2.6,2.7c-1.8-0.2-1.6-3-3.1-3.9c-4.1,2.5,0.4,6.6,3.7,6.5
		c2-0.1,3.2-1.5,3.8-3.3c0.6-2,1.1-3.9,0.9-6.1C248.6,204.8,248.3,202,247.8,200.1z"/>
	<path fill="#E80000" d="M210.4,207.4c-0.4,0.2-1.1-0.1-1.3-0.7c-0.1-0.1-0.1-0.3-0.2-0.4c0-0.3-0.1-0.6-0.3-0.9
		c-0.2-0.6-0.3-1.2-0.5-1.9l-0.1-0.8c0-0.1,0-0.3-0.1-0.4c0.1-0.2,0.3-0.4,0.3-0.7c0.1-0.6-0.4-1.2-0.9-1.2h-0.1c-0.1,0-0.3,0-0.3,0
		h-0.1c-0.5,0-1,0.1-1.6,0.4c-0.3,0.2-1.3,0.9-1.8,1.7c-0.1,0.1-0.1,0.3-0.1,0.5v0.1c-0.1,0.3-0.3,0.6-0.4,0.9l-0.2,0.5l-0.1,0.2
		c-0.2,0.4-0.4,0.9-0.6,1.5c-0.3,1.8,0.3,3.3,1.5,4c0.7,0.4,2.3,0.8,3.4,0c0.5-0.4,0.8-0.8,1-1.3c0.8,0.8,1.9,1.1,2.8,0.8
		c0.5-0.2,0.8-0.8,0.6-1.5C211.5,207.5,210.9,207.2,210.4,207.4z M206.7,207c-0.2,0.6-0.3,1-0.6,1.1c-0.3,0.3-1.1,0.1-1.7-0.1
		c-0.3-0.2-0.5-0.5-0.4-1c0-0.1,0-0.3,0.1-0.4c0.1-0.3,0.2-0.5,0.3-0.8l0.1-0.2l0.3-0.7c0.1-0.3,0.3-0.6,0.3-0.8
		c0.2-0.2,0.3-0.4,0.3-0.7c0.2-0.2,0.4-0.4,0.8-0.6l0,0c0,0.1,0,0.1,0,0.1l0.1,1.1c0.2,0.9,0.4,1.6,0.6,2.3
		C206.8,206.6,206.8,206.8,206.7,207z"/>
	<path fill="#E80000" d="M230.5,207.8c-0.6,0.2-1.3-0.2-1.6-0.9c-0.1-0.2-0.2-0.4-0.3-0.6c0-0.4-0.1-0.9-0.4-1.1
		c-0.3-0.7-0.4-1.5-0.6-2.4l-0.1-0.9c0-0.2-0.1-0.3-0.1-0.5c0.2-0.3,0.3-0.6,0.3-0.9c0.1-0.8-0.4-1.5-1.1-1.5h-0.1
		c-0.1,0-0.3,0-0.4,0h-0.1c-0.6,0-1.3,0.1-2,0.5c-0.4,0.3-1.7,1.1-2.2,2.1c-0.1,0.2-0.1,0.4-0.1,0.6c0,0.1,0,0.1,0,0.1
		c-0.2,0.4-0.4,0.8-0.5,1.1l-0.3,0.6l-0.1,0.3c-0.3,0.5-0.6,1.1-0.7,1.9c-0.4,2.3,0.3,4.2,1.9,5c0.9,0.4,2.9,1,4.3,0
		c0.6-0.4,1-1.1,1.3-1.7c1,1,2.3,1.5,3.6,0.9c0.6-0.3,1-1.1,0.8-1.8C231.8,208,231.1,207.6,230.5,207.8z M225.8,207.3
		c-0.3,0.8-0.4,1.3-0.7,1.5c-0.4,0.3-1.4,0.2-2.1-0.2c-0.4-0.2-0.6-0.6-0.6-1.3c0-0.1,0-0.3,0.1-0.5c0.1-0.3,0.2-0.6,0.4-1l0.1-0.3
		l0.4-0.9c0.1-0.3,0.3-0.8,0.4-0.9c0.2-0.3,0.3-0.6,0.4-0.9c0.3-0.3,0.6-0.5,0.9-0.8c0,0,0,0,0.1,0c0,0.1,0,0.1,0,0.2l0.2,1.3
		c0.2,1.1,0.4,2.1,0.8,3C225.9,206.8,225.8,207.1,225.8,207.3z"/>
	<path fill="#E80000" d="M135.3,149.1L135.3,149.1c-1,0-23.2,0.1-26.4,3l-0.5,0.4c-1,0.8-1.1,2.5-0.8,3.9c0.5,3.3,1.6,2.3,5.6,3
		c1.4,0.3,2.5,0.4,3.3,0.6c2.7,0.4,2.8-0.1,2.3,2.2c-0.6,2.9-1.4,4.7-2,5.9c-1.3,2.3-3,1.8-5.5,2.1c-3.1,0.4-6.4,1.6-9-0.6
		c-2.1-1.8-3.2-4.7-3.3-4.9c-1.1-9,1.8-15.5,1.8-15.5c0.1-0.9,0.8-4.6,7.1-13.1c0,0,1.3-1.5,2.3-2.8c1.1-1.3,2.1-2.5,3.7-3.5
		c1.1-0.7,2-0.9,2.6-1c0.6-0.1,1.1-0.3,1.6-0.7l0.4-0.4l0.2-0.1c1.8-1.6,1.5-3.2,1.5-3.4c0.5-2.4-1.3-3.2-3.3-3.7l-0.7-0.2
		c-1-0.4-3.3,0.4-5,1.2c-1.6,0.1-4.4,2-7.3,5.1c-2.7,2.6-11.6,12.4-12.9,27.8c-1.5,16.4,1.1,18.6,3.7,20.7l1.2,1.1
		c2.7,2.8,12.2,2.8,19.4,1.3l1.9-0.4c6.4-1.6,8.3-6.8,9.3-9.2l0.6-1.3c0.4-0.7,0.8-2.9,0.9-6.2c0.1-2.1-0.6-2.3,1.4-2.9
		c1.7-0.6,4-1.6,4.9-2.7c1.3-1.6,1.8-2.6,1.8-3.8v-0.4C135.9,149.5,135.3,149.1,135.3,149.1z"/>
	<path fill="#E80000" d="M193,140.7v-0.6c0-0.9,0-4.2-1.3-5.1c-1.2-0.9-5.6-0.3-7.9,0.1c-0.9,0.4-2,1-2.3,1.9
		c-0.1,0.2,0.3,1.6,1.3,5.7c2.7,10.2-2,31.1-2.1,31.1c0.1,0.2,1.5,2.8,2.3,4.3c0.1,0.1,3.3,3.4,5.8,2.8h1.1c0.6-0.1,1.1-0.5,1.5-1.1
		c2-3.4,1.3-10.8,1.5-14.9C193.3,154.6,193,142.1,193,140.7z"/>
	<path fill="#E80000" d="M174.1,146.5c0.7-0.9,0.9-2.1,0.8-3.4c-1.1-10-6.2-17.3-12.9-18.6c-2.7-0.6-5.2,0-7.7,1.5
		c-0.9,0.5-2,1.2-2.8,2l-0.4,0.2v-1.1l0.4-6.4c0.1-2.4-1.5-4.4-3.6-4.6c-1.1-0.1-2.2,0.3-3.2,1.1c-1.2,0.7-2,2-2.2,3.5l-0.4,6.8
		l0.3,11.9l0.3,10.4c-2.2,10.7-3.8,22.7-3.9,29.9v2.3c0,0,0,0.1,0,0.1c2,3.3,4.9,3.3,9,0.2v-0.7c0.1-3.2,1-8.4,1.8-13l1.6-10.5
		l0.4-7.4v-0.4l0,0c0.8-4.1,2.1-9.5,3.4-12.2c0.4-0.8,1.5-2.9,3.1-4l1.6-0.1c2.5,0.5,5.4,4,6.2,10.7c0.3,2.5,2.3,4.2,4.5,3.9
		c0,0,1-0.3,1.1-0.3C172.5,148.1,173.5,147.5,174.1,146.5z"/>
	<path fill="#E80000" d="M188.7,127.3c0.8,0.1,1.6-0.5,1.9-1.3c0.7-1.7,0.9-2.3,0.9-4.3c0-0.1,0-0.2,0-0.3c0-1.1-0.3-1.6-0.9-1.9
		l-1.7-0.6c0,0-0.5-0.1-0.6-0.2l-1.2-0.3c-1,0.2-1.7,0.8-2.3,1.8c0,0-0.1,0.1-0.2,0.1c-0.6,0.4-1.1,1.1-1.1,1.9l0.2,1
		C184.6,125.1,185.5,127.1,188.7,127.3z"/>
	<path fill="#E80000" d="M256.2,134.9c1.1,0.1,2.3-0.7,2.7-1.9c0.9-2.4,1.3-3.3,1.3-6.1c0-0.1,0-0.3,0-0.4c0-1.6-0.4-2.3-1.4-2.7
		l-2.4-0.9c0,0-0.7-0.2-0.9-0.3l-1.6-0.3c-1.4,0.3-2.4,1-3.2,2.6c0,0-0.2,0.1-0.3,0.1c-0.9,0.5-1.5,1.6-1.5,2.7l0.3,1.5
		C250.3,131.8,251.6,134.5,256.2,134.9z"/>
	<path fill="#E80000" d="M283,124.1c0,0-0.1,0.1-0.3,0.1l-1.8,0.4c-2,0.7-3.5,1.9-4.7,3.5l-0.2,0.3l-0.2-0.3c-0.9-1.3-2.5-1.6-3.9-1
		l-0.4,0.3h-0.1c-0.6-0.1-1.1,0.1-1.6,0.3c-1.2,0.6-2,1.9-2,3.3l0.3,1.6c3.2,8.3,3.9,17.7,4.4,26.5l-0.1,1.5l-0.4,6.6
		c-0.1,7.3,0.6,12.9,2.3,17.6c3.5,3.3,6.7,3.4,9.4,0.2l-0.1-0.4c-1.5-6.9-1.8-14.3-2.1-22.1l-0.2-3.7l0.3-3.9l0.6-7.3v-5.2v-3.7
		c0.1-3.8,0.5-6.4,2.3-7.5c3.3,0.2,7.9,3.9,8.9,7.2c1.3,4.4,0.1,11.9-0.8,18.1l-0.8,5.4l-0.8,5.4c-0.8,5.8-1.6,11.8-1.5,17.7
		c3,3.3,5.9,3.4,9,0.2c-0.3-4.3,0.3-9,0.9-13.6c0.5-3.8,1-7.6,1.6-11.4l0.4-2.8c1.1-7,2.5-15.7,0.6-22
		C299.8,128.4,290.4,121.4,283,124.1z"/>
	<path fill="#E80000" d="M244.5,161.6c-0.6-3.2-2.7-5.9-5.9-7.8c-1.8-1.1-3.7-1.8-5.6-2.3c-3.9-1-7.8-1.1-11.3-1.1
		c0,0-5.1-0.2-5.2-0.2c-1.3-0.1-2.5-0.8-3.4-2c-1.6-2.1-2.1-5.2-1.3-8.2c0.8-2.8,4.7-6.9,7.4-8.3c1.8-0.3,4,0.1,6.4,0.6
		c2,0.4,4.2,0.8,6.3,0.8c0.7,0,1.4-0.2,2.1-0.5c2.1-0.2,3.8-1.8,3.8-3.9c0-1-0.4-2-1.3-2.8c-0.8-0.8-1.8-1.1-3-1.2
		c-1.4,0-3-0.3-4.8-0.6c-3.7-0.7-8.3-1.6-12.9,0.4l-1.9,0.7c-4.6,2.1-10.5,8-11.8,13.3c-1.3,5.2-0.3,10.6,2.7,14.5
		c1.5,1.9,3.3,3.3,5.4,4.2c3.1,1.3,6.5,1.1,9.8,1.2c4.5,0.1,8.8,0.1,12.4,2.2c1.6,0.9,2,1.8,2.1,2.5c0.4,2.1-1.2,5.7-4.4,9.7
		c-3.5,4.3-6.4,5.2-11.1,5.4c-2.5,0.1-4.3-0.1-5.9-0.9c-2.7-1.4-8.8-8.7-11.7-8.1l-1.3,0.1c-1.3,0.3-2.3,0.9-2.9,1.8
		c-0.8,1.1-0.4,2.8,0.1,4c2.1,4.6,10.4,9.1,10.4,9.1c3.3,1.8,6.7,2,9.5,1.9h2.5c7.5-0.2,13.3-1.7,18.9-8.6
		C243.4,171.5,245.4,166.1,244.5,161.6z"/>
	<path fill="#E80000" d="M261.4,144.4c0-1.2-0.4-2.4-1.2-3.2c-0.8-0.9-1.8-1.3-2.9-1.3l-1.6,0.4h-0.3c-2.2,0-4,2-4.1,4.5l-0.1,18.7
		l-0.4,5.7c-0.6,5-1.2,10.5,0.5,15.2c3.2,2.8,6.5,2.8,9.8,0.3c0.9-2.5,1.5-5.9,1.5-9c0.1-3.4-0.4-6.4-1.6-8.7c0,0,0.3-3.6,0.3-3.7
		C261.3,163.2,261.4,144.4,261.4,144.4z"/>
	<path fill="#E80000" d="M339.9,145.9c-3-5.2-7.9-9.3-13.3-10.4c-0.1-0.5-0.3-0.9-0.6-1.4c-1.4-2.2-4-2.8-6-1.3
		c-5.1,3.9-11.1,12.2-12.1,21.3c-0.6,5.2,0.7,9.8,3.5,13.4c6.5,8,18.4,9.3,26.1,2.7c3.6-3.1,5.5-7.4,5.6-12.3
		C343.3,154.1,342.2,149.9,339.9,145.9z M332.3,162.6c-4,3.4-11,2.7-14.5-1.5c-1-1.3-1.5-2.8-1.5-4.7c0-0.3,0-0.7,0.1-1.1
		c0.3-2.8,1.6-5.7,3.2-8.3c0.9-1.5,2.3-2.1,4.2-2.3c3.6-0.2,7.1,3.3,8.7,6.3C333,151.8,336.8,158.8,332.3,162.6z"/>
</g>
</svg>
